<?xml version="1.0" encoding="UTF-8" standalone="no"?>
<!DOCTYPE svg PUBLIC "-//W3C//DTD SVG 1.1//EN"
 "http://www.w3.org/Graphics/SVG/1.1/DTD/svg11.dtd">
<!-- Generated by graphviz version 14.1.2 (0)
 -->
<!-- Title: AST Pages: 1 -->
<svg width="1299pt" height="688pt"
 viewBox="0.00 0.00 1299.00 688.00" xmlns="http://www.w3.org/2000/svg" xmlns:xlink="http://www.w3.org/1999/xlink">
<g id="graph0" class="graph" transform="scale(1 1) rotate(0) translate(4 684.2)">
<title>AST</title>
<polygon fill="white" stroke="none" points="-4,4 -4,-684.2 1295.17,-684.2 1295.17,4 -4,4"/>
<!-- node0 -->
<g id="node1" class="node">
<title>node0</title>
<path fill="#f0f0f0" stroke="#444444" stroke-width="2" d="M155.54,-680.2C155.54,-680.2 95.71,-680.2 95.71,-680.2 89.71,-680.2 83.71,-674.2 83.71,-668.2 83.71,-668.2 83.71,-656.2 83.71,-656.2 83.71,-650.2 89.71,-644.2 95.71,-644.2 95.71,-644.2 155.54,-644.2 155.54,-644.2 161.54,-644.2 167.54,-650.2 167.54,-656.2 167.54,-656.2 167.54,-668.2 167.54,-668.2 167.54,-674.2 161.54,-680.2 155.54,-680.2"/>
<text xml:space="preserve" text-anchor="middle" x="125.63" y="-659.2" font-family="Helvetica,sans-Serif" font-size="10.00">translation_unit</text>
</g>
<!-- node1 -->
<g id="node2" class="node">
<title>node1</title>
<path fill="#f0f0f0" stroke="#444444" stroke-width="2" d="M103.2,-607.2C103.2,-607.2 40.05,-607.2 40.05,-607.2 34.05,-607.2 28.05,-601.2 28.05,-595.2 28.05,-595.2 28.05,-583.2 28.05,-583.2 28.05,-577.2 34.05,-571.2 40.05,-571.2 40.05,-571.2 103.2,-571.2 103.2,-571.2 109.2,-571.2 115.2,-577.2 115.2,-583.2 115.2,-583.2 115.2,-595.2 115.2,-595.2 115.2,-601.2 109.2,-607.2 103.2,-607.2"/>
<text xml:space="preserve" text-anchor="middle" x="71.63" y="-586.2" font-family="Helvetica,sans-Serif" font-size="10.00">preproc_include</text>
</g>
<!-- node0&#45;&gt;node1 -->
<g id="edge2" class="edge">
<title>node0&#45;&gt;node1</title>
<path fill="none" stroke="black" d="M112.55,-644.01C106.19,-635.64 98.4,-625.4 91.33,-616.1"/>
<polygon fill="black" stroke="black" points="94.33,-614.27 85.49,-608.43 88.76,-618.51 94.33,-614.27"/>
</g>
<!-- node3 -->
<g id="node4" class="node">
<title>node3</title>
<path fill="#a1ef9b" stroke="#444444" stroke-width="2" d="M232.93,-607.2C232.93,-607.2 160.32,-607.2 160.32,-607.2 154.32,-607.2 148.32,-601.2 148.32,-595.2 148.32,-595.2 148.32,-583.2 148.32,-583.2 148.32,-577.2 154.32,-571.2 160.32,-571.2 160.32,-571.2 232.93,-571.2 232.93,-571.2 238.93,-571.2 244.93,-577.2 244.93,-583.2 244.93,-583.2 244.93,-595.2 244.93,-595.2 244.93,-601.2 238.93,-607.2 232.93,-607.2"/>
<text xml:space="preserve" text-anchor="middle" x="196.63" y="-586.2" font-family="Helvetica,sans-Serif" font-size="10.00">function_definition</text>
</g>
<!-- node0&#45;&gt;node3 -->
<g id="edge28" class="edge">
<title>node0&#45;&gt;node3</title>
<path fill="none" stroke="black" d="M142.81,-644.01C151.45,-635.38 162.07,-624.76 171.59,-615.23"/>
<polygon fill="black" stroke="black" points="173.93,-617.85 178.53,-608.3 168.98,-612.9 173.93,-617.85"/>
</g>
<!-- node2 -->
<g id="node3" class="node">
<title>node2</title>
<path fill="#f0f0f0" stroke="#444444" stroke-width="2" d="M81.25,-525.6C81.25,-525.6 12,-525.6 12,-525.6 6,-525.6 0,-519.6 0,-513.6 0,-513.6 0,-501.6 0,-501.6 0,-495.6 6,-489.6 12,-489.6 12,-489.6 81.25,-489.6 81.25,-489.6 87.25,-489.6 93.25,-495.6 93.25,-501.6 93.25,-501.6 93.25,-513.6 93.25,-513.6 93.25,-519.6 87.25,-525.6 81.25,-525.6"/>
<text xml:space="preserve" text-anchor="middle" x="46.63" y="-510.6" font-family="Helvetica,sans-Serif" font-size="10.00">system_lib_string</text>
<text xml:space="preserve" text-anchor="middle" x="46.63" y="-498.6" font-family="Helvetica,sans-Serif" font-size="10.00">&#39;&lt;iostream&gt;&#39;</text>
</g>
<!-- node1&#45;&gt;node2 -->
<g id="edge1" class="edge">
<title>node1&#45;&gt;node2</title>
<path fill="none" stroke="black" d="M66.2,-570.93C63.06,-560.91 59.02,-548.06 55.43,-536.64"/>
<polygon fill="black" stroke="black" points="58.83,-535.77 52.49,-527.28 52.15,-537.87 58.83,-535.77"/>
<text xml:space="preserve" text-anchor="middle" x="67.51" y="-546" font-family="Times New Roman,serif" font-size="8.00" fill="#888888">path</text>
</g>
<!-- node4 -->
<g id="node5" class="node">
<title>node4</title>
<path fill="#f0f0f0" stroke="#444444" stroke-width="2" d="M176.47,-525.6C176.47,-525.6 122.78,-525.6 122.78,-525.6 116.78,-525.6 110.78,-519.6 110.78,-513.6 110.78,-513.6 110.78,-501.6 110.78,-501.6 110.78,-495.6 116.78,-489.6 122.78,-489.6 122.78,-489.6 176.47,-489.6 176.47,-489.6 182.47,-489.6 188.47,-495.6 188.47,-501.6 188.47,-501.6 188.47,-513.6 188.47,-513.6 188.47,-519.6 182.47,-525.6 176.47,-525.6"/>
<text xml:space="preserve" text-anchor="middle" x="149.63" y="-510.6" font-family="Helvetica,sans-Serif" font-size="10.00">primitive_type</text>
<text xml:space="preserve" text-anchor="middle" x="149.63" y="-498.6" font-family="Helvetica,sans-Serif" font-size="10.00">&#39;int&#39;</text>
</g>
<!-- node3&#45;&gt;node4 -->
<g id="edge3" class="edge">
<title>node3&#45;&gt;node4</title>
<path fill="none" stroke="black" d="M186.43,-570.93C180.33,-560.6 172.45,-547.26 165.55,-535.57"/>
<polygon fill="black" stroke="black" points="168.67,-533.97 160.57,-527.14 162.64,-537.53 168.67,-533.97"/>
<text xml:space="preserve" text-anchor="middle" x="182.83" y="-546" font-family="Times New Roman,serif" font-size="8.00" fill="#888888">type</text>
</g>
<!-- node5 -->
<g id="node6" class="node">
<title>node5</title>
<path fill="#f0f0f0" stroke="#444444" stroke-width="2" d="M295.15,-525.6C295.15,-525.6 218.1,-525.6 218.1,-525.6 212.1,-525.6 206.1,-519.6 206.1,-513.6 206.1,-513.6 206.1,-501.6 206.1,-501.6 206.1,-495.6 212.1,-489.6 218.1,-489.6 218.1,-489.6 295.15,-489.6 295.15,-489.6 301.15,-489.6 307.15,-495.6 307.15,-501.6 307.15,-501.6 307.15,-513.6 307.15,-513.6 307.15,-519.6 301.15,-525.6 295.15,-525.6"/>
<text xml:space="preserve" text-anchor="middle" x="256.63" y="-504.6" font-family="Helvetica,sans-Serif" font-size="10.00">function_declarator</text>
</g>
<!-- node3&#45;&gt;node5 -->
<g id="edge6" class="edge">
<title>node3&#45;&gt;node5</title>
<path fill="none" stroke="black" d="M209.64,-570.93C217.59,-560.39 227.89,-546.72 236.83,-534.86"/>
<polygon fill="black" stroke="black" points="239.5,-537.14 242.72,-527.05 233.91,-532.93 239.5,-537.14"/>
<text xml:space="preserve" text-anchor="middle" x="246.21" y="-546" font-family="Times New Roman,serif" font-size="8.00" fill="#888888">declarator</text>
</g>
<!-- node8 -->
<g id="node9" class="node">
<title>node8</title>
<path fill="#f0f0f0" stroke="#444444" stroke-width="2" d="M661.71,-525.6C661.71,-525.6 573.54,-525.6 573.54,-525.6 567.54,-525.6 561.54,-519.6 561.54,-513.6 561.54,-513.6 561.54,-501.6 561.54,-501.6 561.54,-495.6 567.54,-489.6 573.54,-489.6 573.54,-489.6 661.71,-489.6 661.71,-489.6 667.71,-489.6 673.71,-495.6 673.71,-501.6 673.71,-501.6 673.71,-513.6 673.71,-513.6 673.71,-519.6 667.71,-525.6 661.71,-525.6"/>
<text xml:space="preserve" text-anchor="middle" x="617.63" y="-504.6" font-family="Helvetica,sans-Serif" font-size="10.00">compound_statement</text>
</g>
<!-- node3&#45;&gt;node8 -->
<g id="edge27" class="edge">
<title>node3&#45;&gt;node8</title>
<path fill="none" stroke="black" d="M245.33,-578.99C320.52,-564.77 465.08,-537.44 550.25,-521.34"/>
<polygon fill="black" stroke="black" points="550.69,-524.82 559.86,-519.52 549.39,-517.94 550.69,-524.82"/>
<text xml:space="preserve" text-anchor="middle" x="440.33" y="-546" font-family="Times New Roman,serif" font-size="8.00" fill="#888888">body</text>
</g>
<!-- node6 -->
<g id="node7" class="node">
<title>node6</title>
<path fill="#9bdaef" stroke="#444444" stroke-width="2" d="M186.63,-444C186.63,-444 156.63,-444 156.63,-444 150.63,-444 144.63,-438 144.63,-432 144.63,-432 144.63,-420 144.63,-420 144.63,-414 150.63,-408 156.63,-408 156.63,-408 186.63,-408 186.63,-408 192.63,-408 198.63,-414 198.63,-420 198.63,-420 198.63,-432 198.63,-432 198.63,-438 192.63,-444 186.63,-444"/>
<text xml:space="preserve" text-anchor="middle" x="171.63" y="-429" font-family="Helvetica,sans-Serif" font-size="10.00">identifier</text>
<text xml:space="preserve" text-anchor="middle" x="171.63" y="-417" font-family="Helvetica,sans-Serif" font-size="10.00">&#39;main&#39;</text>
</g>
<!-- node5&#45;&gt;node6 -->
<g id="edge4" class="edge">
<title>node5&#45;&gt;node6</title>
<path fill="none" stroke="black" d="M238.18,-489.33C226.49,-478.38 211.17,-464.03 198.17,-451.86"/>
<polygon fill="black" stroke="black" points="200.83,-449.55 191.14,-445.27 196.04,-454.66 200.83,-449.55"/>
<text xml:space="preserve" text-anchor="middle" x="235.2" y="-464.4" font-family="Times New Roman,serif" font-size="8.00" fill="#888888">declarator</text>
</g>
<!-- node7 -->
<g id="node8" class="node">
<title>node7</title>
<path fill="#f0f0f0" stroke="#444444" stroke-width="2" d="M284.31,-444C284.31,-444 228.95,-444 228.95,-444 222.95,-444 216.95,-438 216.95,-432 216.95,-432 216.95,-420 216.95,-420 216.95,-414 222.95,-408 228.95,-408 228.95,-408 284.31,-408 284.31,-408 290.31,-408 296.31,-414 296.31,-420 296.31,-420 296.31,-432 296.31,-432 296.31,-438 290.31,-444 284.31,-444"/>
<text xml:space="preserve" text-anchor="middle" x="256.63" y="-429" font-family="Helvetica,sans-Serif" font-size="10.00">parameter_list</text>
<text xml:space="preserve" text-anchor="middle" x="256.63" y="-417" font-family="Helvetica,sans-Serif" font-size="10.00">&#39;()&#39;</text>
</g>
<!-- node5&#45;&gt;node7 -->
<g id="edge5" class="edge">
<title>node5&#45;&gt;node7</title>
<path fill="none" stroke="black" d="M256.63,-489.33C256.63,-479.52 256.63,-467 256.63,-455.75"/>
<polygon fill="black" stroke="black" points="260.13,-455.75 256.63,-445.75 253.13,-455.75 260.13,-455.75"/>
<text xml:space="preserve" text-anchor="middle" x="274.17" y="-464.4" font-family="Times New Roman,serif" font-size="8.00" fill="#888888">parameters</text>
</g>
<!-- node9 -->
<g id="node10" class="node">
<title>node9</title>
<path fill="#f0f0f0" stroke="#444444" stroke-width="2" d="M367.09,-444C367.09,-444 326.17,-444 326.17,-444 320.17,-444 314.17,-438 314.17,-432 314.17,-432 314.17,-420 314.17,-420 314.17,-414 320.17,-408 326.17,-408 326.17,-408 367.09,-408 367.09,-408 373.09,-408 379.09,-414 379.09,-420 379.09,-420 379.09,-432 379.09,-432 379.09,-438 373.09,-444 367.09,-444"/>
<text xml:space="preserve" text-anchor="middle" x="346.63" y="-423" font-family="Helvetica,sans-Serif" font-size="10.00">declaration</text>
</g>
<!-- node8&#45;&gt;node9 -->
<g id="edge11" class="edge">
<title>node8&#45;&gt;node9</title>
<path fill="none" stroke="black" d="M561.25,-493.39C516.79,-482.49 453.12,-465.82 389.74,-444.53"/>
<polygon fill="black" stroke="black" points="391.18,-441.32 380.59,-441.41 388.93,-447.95 391.18,-441.32"/>
</g>
<!-- node14 -->
<g id="node15" class="node">
<title>node14</title>
<path fill="#f0f0f0" stroke="#444444" stroke-width="2" d="M598.49,-444C598.49,-444 408.76,-444 408.76,-444 402.76,-444 396.76,-438 396.76,-432 396.76,-432 396.76,-420 396.76,-420 396.76,-414 402.76,-408 408.76,-408 408.76,-408 598.49,-408 598.49,-408 604.49,-408 610.49,-414 610.49,-420 610.49,-420 610.49,-432 610.49,-432 610.49,-438 604.49,-444 598.49,-444"/>
<text xml:space="preserve" text-anchor="middle" x="503.63" y="-429" font-family="Helvetica,sans-Serif" font-size="10.00">comment</text>
<text xml:space="preserve" text-anchor="middle" x="503.63" y="-417" font-family="Helvetica,sans-Serif" font-size="10.00">&#39;// ERROR 1: &#39;b&#39; is not declared in this scope&#39;</text>
</g>
<!-- node8&#45;&gt;node14 -->
<g id="edge12" class="edge">
<title>node8&#45;&gt;node14</title>
<path fill="none" stroke="black" d="M592.61,-489.13C576.57,-477.93 555.54,-463.25 537.95,-450.97"/>
<polygon fill="black" stroke="black" points="540.03,-448.15 529.83,-445.29 536.02,-453.89 540.03,-448.15"/>
</g>
<!-- node15 -->
<g id="node16" class="node">
<title>node15</title>
<path fill="#f0f0f0" stroke="#444444" stroke-width="2" d="M823.18,-444C823.18,-444 640.07,-444 640.07,-444 634.07,-444 628.07,-438 628.07,-432 628.07,-432 628.07,-420 628.07,-420 628.07,-414 634.07,-408 640.07,-408 640.07,-408 823.18,-408 823.18,-408 829.18,-408 835.18,-414 835.18,-420 835.18,-420 835.18,-432 835.18,-432 835.18,-438 829.18,-444 823.18,-444"/>
<text xml:space="preserve" text-anchor="middle" x="731.63" y="-429" font-family="Helvetica,sans-Serif" font-size="10.00">comment</text>
<text xml:space="preserve" text-anchor="middle" x="731.63" y="-417" font-family="Helvetica,sans-Serif" font-size="10.00">&#39;// ERROR 2: Missing semicolon at the end&#39;</text>
</g>
<!-- node8&#45;&gt;node15 -->
<g id="edge13" class="edge">
<title>node8&#45;&gt;node15</title>
<path fill="none" stroke="black" d="M642.64,-489.13C658.68,-477.93 679.71,-463.25 697.3,-450.97"/>
<polygon fill="black" stroke="black" points="699.23,-453.89 705.43,-445.29 695.22,-448.15 699.23,-453.89"/>
</g>
<!-- node16 -->
<g id="node17" class="node">
<title>node16</title>
<path fill="#ff6b6b" stroke="#444444" stroke-width="2" d="M1033.97,-444C1033.97,-444 865.29,-444 865.29,-444 859.29,-444 853.29,-438 853.29,-432 853.29,-432 853.29,-420 853.29,-420 853.29,-414 859.29,-408 865.29,-408 865.29,-408 1033.97,-408 1033.97,-408 1039.97,-408 1045.97,-414 1045.97,-420 1045.97,-420 1045.97,-432 1045.97,-432 1045.97,-438 1039.97,-444 1033.97,-444"/>
<text xml:space="preserve" text-anchor="middle" x="949.63" y="-429" font-family="Helvetica,sans-Serif" font-size="10.00">expression_statement</text>
<text xml:space="preserve" text-anchor="middle" x="949.63" y="-417" font-family="Helvetica,sans-Serif" font-size="10.00">[GCC &#39;b&#39; was not declared in this scope]</text>
</g>
<!-- node8&#45;&gt;node16 -->
<g id="edge25" class="edge">
<title>node8&#45;&gt;node16</title>
<path fill="none" stroke="black" d="M673.94,-493.1C726.54,-480.49 805.73,-461.5 865.76,-447.11"/>
<polygon fill="black" stroke="black" points="866.35,-450.56 875.26,-444.83 864.72,-443.76 866.35,-450.56"/>
</g>
<!-- node28 -->
<g id="node29" class="node">
<title>node28</title>
<path fill="#f0f0f0" stroke="#444444" stroke-width="2" d="M1279.17,-444C1279.17,-444 1076.08,-444 1076.08,-444 1070.08,-444 1064.08,-438 1064.08,-432 1064.08,-432 1064.08,-420 1064.08,-420 1064.08,-414 1070.08,-408 1076.08,-408 1076.08,-408 1279.17,-408 1279.17,-408 1285.17,-408 1291.17,-414 1291.17,-420 1291.17,-420 1291.17,-432 1291.17,-432 1291.17,-438 1285.17,-444 1279.17,-444"/>
<text xml:space="preserve" text-anchor="middle" x="1177.63" y="-429" font-family="Helvetica,sans-Serif" font-size="10.00">comment</text>
<text xml:space="preserve" text-anchor="middle" x="1177.63" y="-417" font-family="Helvetica,sans-Serif" font-size="10.00">&#39;// ERROR 3: Missing closing bracket for main()&#39;</text>
</g>
<!-- node8&#45;&gt;node28 -->
<g id="edge26" class="edge">
<title>node8&#45;&gt;node28</title>
<path fill="none" stroke="black" d="M674.14,-498.57C762.18,-486.05 934.23,-461.6 1052.49,-444.79"/>
<polygon fill="black" stroke="black" points="1052.86,-448.27 1062.27,-443.4 1051.88,-441.34 1052.86,-448.27"/>
</g>
<!-- node10 -->
<g id="node11" class="node">
<title>node10</title>
<path fill="#f0f0f0" stroke="#444444" stroke-width="2" d="M340.47,-362.4C340.47,-362.4 286.78,-362.4 286.78,-362.4 280.78,-362.4 274.78,-356.4 274.78,-350.4 274.78,-350.4 274.78,-338.4 274.78,-338.4 274.78,-332.4 280.78,-326.4 286.78,-326.4 286.78,-326.4 340.47,-326.4 340.47,-326.4 346.47,-326.4 352.47,-332.4 352.47,-338.4 352.47,-338.4 352.47,-350.4 352.47,-350.4 352.47,-356.4 346.47,-362.4 340.47,-362.4"/>
<text xml:space="preserve" text-anchor="middle" x="313.63" y="-347.4" font-family="Helvetica,sans-Serif" font-size="10.00">primitive_type</text>
<text xml:space="preserve" text-anchor="middle" x="313.63" y="-335.4" font-family="Helvetica,sans-Serif" font-size="10.00">&#39;int&#39;</text>
</g>
<!-- node9&#45;&gt;node10 -->
<g id="edge7" class="edge">
<title>node9&#45;&gt;node10</title>
<path fill="none" stroke="black" d="M339.46,-407.73C335.27,-397.61 329.87,-384.6 325.1,-373.08"/>
<polygon fill="black" stroke="black" points="328.41,-371.93 321.35,-364.04 321.95,-374.61 328.41,-371.93"/>
<text xml:space="preserve" text-anchor="middle" x="338.99" y="-382.8" font-family="Times New Roman,serif" font-size="8.00" fill="#888888">type</text>
</g>
<!-- node11 -->
<g id="node12" class="node">
<title>node11</title>
<path fill="#f0f0f0" stroke="#444444" stroke-width="2" d="M437.03,-362.4C437.03,-362.4 382.22,-362.4 382.22,-362.4 376.22,-362.4 370.22,-356.4 370.22,-350.4 370.22,-350.4 370.22,-338.4 370.22,-338.4 370.22,-332.4 376.22,-326.4 382.22,-326.4 382.22,-326.4 437.03,-326.4 437.03,-326.4 443.03,-326.4 449.03,-332.4 449.03,-338.4 449.03,-338.4 449.03,-350.4 449.03,-350.4 449.03,-356.4 443.03,-362.4 437.03,-362.4"/>
<text xml:space="preserve" text-anchor="middle" x="409.63" y="-341.4" font-family="Helvetica,sans-Serif" font-size="10.00">init_declarator</text>
</g>
<!-- node9&#45;&gt;node11 -->
<g id="edge10" class="edge">
<title>node9&#45;&gt;node11</title>
<path fill="none" stroke="black" d="M360.3,-407.73C368.63,-397.19 379.46,-383.52 388.84,-371.66"/>
<polygon fill="black" stroke="black" points="391.58,-373.84 395.04,-363.83 386.09,-369.49 391.58,-373.84"/>
<text xml:space="preserve" text-anchor="middle" x="397.89" y="-382.8" font-family="Times New Roman,serif" font-size="8.00" fill="#888888">declarator</text>
</g>
<!-- node12 -->
<g id="node13" class="node">
<title>node12</title>
<path fill="#9bdaef" stroke="#444444" stroke-width="2" d="M381.63,-280.8C381.63,-280.8 351.63,-280.8 351.63,-280.8 345.63,-280.8 339.63,-274.8 339.63,-268.8 339.63,-268.8 339.63,-256.8 339.63,-256.8 339.63,-250.8 345.63,-244.8 351.63,-244.8 351.63,-244.8 381.63,-244.8 381.63,-244.8 387.63,-244.8 393.63,-250.8 393.63,-256.8 393.63,-256.8 393.63,-268.8 393.63,-268.8 393.63,-274.8 387.63,-280.8 381.63,-280.8"/>
<text xml:space="preserve" text-anchor="middle" x="366.63" y="-265.8" font-family="Helvetica,sans-Serif" font-size="10.00">identifier</text>
<text xml:space="preserve" text-anchor="middle" x="366.63" y="-253.8" font-family="Helvetica,sans-Serif" font-size="10.00">&#39;a&#39;</text>
</g>
<!-- node11&#45;&gt;node12 -->
<g id="edge8" class="edge">
<title>node11&#45;&gt;node12</title>
<path fill="none" stroke="black" d="M400.3,-326.13C394.77,-315.91 387.65,-302.73 381.39,-291.12"/>
<polygon fill="black" stroke="black" points="384.49,-289.5 376.66,-282.37 378.33,-292.83 384.49,-289.5"/>
<text xml:space="preserve" text-anchor="middle" x="406.69" y="-301.2" font-family="Times New Roman,serif" font-size="8.00" fill="#888888">declarator</text>
</g>
<!-- node13 -->
<g id="node14" class="node">
<title>node13</title>
<path fill="#f0f0f0" stroke="#444444" stroke-width="2" d="M479.31,-280.8C479.31,-280.8 423.94,-280.8 423.94,-280.8 417.94,-280.8 411.94,-274.8 411.94,-268.8 411.94,-268.8 411.94,-256.8 411.94,-256.8 411.94,-250.8 417.94,-244.8 423.94,-244.8 423.94,-244.8 479.31,-244.8 479.31,-244.8 485.31,-244.8 491.31,-250.8 491.31,-256.8 491.31,-256.8 491.31,-268.8 491.31,-268.8 491.31,-274.8 485.31,-280.8 479.31,-280.8"/>
<text xml:space="preserve" text-anchor="middle" x="451.63" y="-265.8" font-family="Helvetica,sans-Serif" font-size="10.00">number_literal</text>
<text xml:space="preserve" text-anchor="middle" x="451.63" y="-253.8" font-family="Helvetica,sans-Serif" font-size="10.00">&#39;10&#39;</text>
</g>
<!-- node11&#45;&gt;node13 -->
<g id="edge9" class="edge">
<title>node11&#45;&gt;node13</title>
<path fill="none" stroke="black" d="M418.74,-326.13C424.13,-315.91 431.09,-302.73 437.21,-291.12"/>
<polygon fill="black" stroke="black" points="440.25,-292.85 441.82,-282.38 434.06,-289.59 440.25,-292.85"/>
<text xml:space="preserve" text-anchor="middle" x="441.8" y="-301.2" font-family="Times New Roman,serif" font-size="8.00" fill="#888888">value</text>
</g>
<!-- node17 -->
<g id="node18" class="node">
<title>node17</title>
<path fill="#f0f0f0" stroke="#444444" stroke-width="2" d="M998.15,-362.4C998.15,-362.4 901.1,-362.4 901.1,-362.4 895.1,-362.4 889.1,-356.4 889.1,-350.4 889.1,-350.4 889.1,-338.4 889.1,-338.4 889.1,-332.4 895.1,-326.4 901.1,-326.4 901.1,-326.4 998.15,-326.4 998.15,-326.4 1004.15,-326.4 1010.15,-332.4 1010.15,-338.4 1010.15,-338.4 1010.15,-350.4 1010.15,-350.4 1010.15,-356.4 1004.15,-362.4 998.15,-362.4"/>
<text xml:space="preserve" text-anchor="middle" x="949.63" y="-341.4" font-family="Helvetica,sans-Serif" font-size="10.00">assignment_expression</text>
</g>
<!-- node16&#45;&gt;node17 -->
<g id="edge24" class="edge">
<title>node16&#45;&gt;node17</title>
<path fill="none" stroke="black" d="M949.63,-407.73C949.63,-397.92 949.63,-385.4 949.63,-374.15"/>
<polygon fill="black" stroke="black" points="953.13,-374.15 949.63,-364.15 946.13,-374.15 953.13,-374.15"/>
</g>
<!-- node18 -->
<g id="node19" class="node">
<title>node18</title>
<path fill="#9bdaef" stroke="#444444" stroke-width="2" d="M932.63,-280.8C932.63,-280.8 902.63,-280.8 902.63,-280.8 896.63,-280.8 890.63,-274.8 890.63,-268.8 890.63,-268.8 890.63,-256.8 890.63,-256.8 890.63,-250.8 896.63,-244.8 902.63,-244.8 902.63,-244.8 932.63,-244.8 932.63,-244.8 938.63,-244.8 944.63,-250.8 944.63,-256.8 944.63,-256.8 944.63,-268.8 944.63,-268.8 944.63,-274.8 938.63,-280.8 932.63,-280.8"/>
<text xml:space="preserve" text-anchor="middle" x="917.63" y="-265.8" font-family="Helvetica,sans-Serif" font-size="10.00">identifier</text>
<text xml:space="preserve" text-anchor="middle" x="917.63" y="-253.8" font-family="Helvetica,sans-Serif" font-size="10.00">&#39;b&#39;</text>
</g>
<!-- node17&#45;&gt;node18 -->
<g id="edge14" class="edge">
<title>node17&#45;&gt;node18</title>
<path fill="none" stroke="black" d="M942.68,-326.13C938.61,-316.01 933.38,-303 928.75,-291.48"/>
<polygon fill="black" stroke="black" points="932.1,-290.42 925.12,-282.44 925.6,-293.03 932.1,-290.42"/>
<text xml:space="preserve" text-anchor="middle" x="940.87" y="-301.2" font-family="Times New Roman,serif" font-size="8.00" fill="#888888">left</text>
</g>
<!-- node19 -->
<g id="node20" class="node">
<title>node19</title>
<path fill="#f0f0f0" stroke="#444444" stroke-width="2" d="M1048.2,-280.8C1048.2,-280.8 975.05,-280.8 975.05,-280.8 969.05,-280.8 963.05,-274.8 963.05,-268.8 963.05,-268.8 963.05,-256.8 963.05,-256.8 963.05,-250.8 969.05,-244.8 975.05,-244.8 975.05,-244.8 1048.2,-244.8 1048.2,-244.8 1054.2,-244.8 1060.2,-250.8 1060.2,-256.8 1060.2,-256.8 1060.2,-268.8 1060.2,-268.8 1060.2,-274.8 1054.2,-280.8 1048.2,-280.8"/>
<text xml:space="preserve" text-anchor="middle" x="1011.63" y="-259.8" font-family="Helvetica,sans-Serif" font-size="10.00">binary_expression</text>
</g>
<!-- node17&#45;&gt;node19 -->
<g id="edge23" class="edge">
<title>node17&#45;&gt;node19</title>
<path fill="none" stroke="black" d="M963.08,-326.13C971.28,-315.59 981.94,-301.92 991.17,-290.06"/>
<polygon fill="black" stroke="black" points="993.88,-292.27 997.27,-282.23 988.36,-287.97 993.88,-292.27"/>
<text xml:space="preserve" text-anchor="middle" x="991.89" y="-301.2" font-family="Times New Roman,serif" font-size="8.00" fill="#888888">right</text>
</g>
<!-- node20 -->
<g id="node21" class="node">
<title>node20</title>
<path fill="#f0f0f0" stroke="#444444" stroke-width="2" d="M986.2,-199.2C986.2,-199.2 913.05,-199.2 913.05,-199.2 907.05,-199.2 901.05,-193.2 901.05,-187.2 901.05,-187.2 901.05,-175.2 901.05,-175.2 901.05,-169.2 907.05,-163.2 913.05,-163.2 913.05,-163.2 986.2,-163.2 986.2,-163.2 992.2,-163.2 998.2,-169.2 998.2,-175.2 998.2,-175.2 998.2,-187.2 998.2,-187.2 998.2,-193.2 992.2,-199.2 986.2,-199.2"/>
<text xml:space="preserve" text-anchor="middle" x="949.63" y="-178.2" font-family="Helvetica,sans-Serif" font-size="10.00">binary_expression</text>
</g>
<!-- node19&#45;&gt;node20 -->
<g id="edge21" class="edge">
<title>node19&#45;&gt;node20</title>
<path fill="none" stroke="black" d="M998.17,-244.53C989.97,-233.99 979.31,-220.32 970.08,-208.46"/>
<polygon fill="black" stroke="black" points="972.89,-206.37 963.98,-200.63 967.37,-210.67 972.89,-206.37"/>
<text xml:space="preserve" text-anchor="middle" x="989.67" y="-219.6" font-family="Times New Roman,serif" font-size="8.00" fill="#888888">left</text>
</g>
<!-- node27 -->
<g id="node28" class="node">
<title>node27</title>
<path fill="#9bdaef" stroke="#444444" stroke-width="2" d="M1058.63,-199.2C1058.63,-199.2 1028.63,-199.2 1028.63,-199.2 1022.63,-199.2 1016.63,-193.2 1016.63,-187.2 1016.63,-187.2 1016.63,-175.2 1016.63,-175.2 1016.63,-169.2 1022.63,-163.2 1028.63,-163.2 1028.63,-163.2 1058.63,-163.2 1058.63,-163.2 1064.63,-163.2 1070.63,-169.2 1070.63,-175.2 1070.63,-175.2 1070.63,-187.2 1070.63,-187.2 1070.63,-193.2 1064.63,-199.2 1058.63,-199.2"/>
<text xml:space="preserve" text-anchor="middle" x="1043.63" y="-184.2" font-family="Helvetica,sans-Serif" font-size="10.00">identifier</text>
<text xml:space="preserve" text-anchor="middle" x="1043.63" y="-172.2" font-family="Helvetica,sans-Serif" font-size="10.00">&#39;b&#39;</text>
</g>
<!-- node19&#45;&gt;node27 -->
<g id="edge22" class="edge">
<title>node19&#45;&gt;node27</title>
<path fill="none" stroke="black" d="M1018.57,-244.53C1022.64,-234.41 1027.87,-221.4 1032.5,-209.88"/>
<polygon fill="black" stroke="black" points="1035.65,-211.43 1036.13,-200.84 1029.15,-208.82 1035.65,-211.43"/>
<text xml:space="preserve" text-anchor="middle" x="1037.1" y="-219.6" font-family="Times New Roman,serif" font-size="8.00" fill="#888888">right</text>
</g>
<!-- node21 -->
<g id="node22" class="node">
<title>node21</title>
<path fill="#9bdaef" stroke="#444444" stroke-width="2" d="M892.63,-117.6C892.63,-117.6 862.63,-117.6 862.63,-117.6 856.63,-117.6 850.63,-111.6 850.63,-105.6 850.63,-105.6 850.63,-93.6 850.63,-93.6 850.63,-87.6 856.63,-81.6 862.63,-81.6 862.63,-81.6 892.63,-81.6 892.63,-81.6 898.63,-81.6 904.63,-87.6 904.63,-93.6 904.63,-93.6 904.63,-105.6 904.63,-105.6 904.63,-111.6 898.63,-117.6 892.63,-117.6"/>
<text xml:space="preserve" text-anchor="middle" x="877.63" y="-102.6" font-family="Helvetica,sans-Serif" font-size="10.00">identifier</text>
<text xml:space="preserve" text-anchor="middle" x="877.63" y="-90.6" font-family="Helvetica,sans-Serif" font-size="10.00">&#39;a&#39;</text>
</g>
<!-- node20&#45;&gt;node21 -->
<g id="edge15" class="edge">
<title>node20&#45;&gt;node21</title>
<path fill="none" stroke="black" d="M934,-162.93C924.28,-152.18 911.61,-138.17 900.74,-126.16"/>
<polygon fill="black" stroke="black" points="903.54,-124.03 894.23,-118.96 898.35,-128.72 903.54,-124.03"/>
<text xml:space="preserve" text-anchor="middle" x="923.27" y="-138" font-family="Times New Roman,serif" font-size="8.00" fill="#888888">left</text>
</g>
<!-- node22 -->
<g id="node23" class="node">
<title>node22</title>
<path fill="#ff6b6b" stroke="#444444" stroke-width="2" d="M964.63,-117.6C964.63,-117.6 934.63,-117.6 934.63,-117.6 928.63,-117.6 922.63,-111.6 922.63,-105.6 922.63,-105.6 922.63,-93.6 922.63,-93.6 922.63,-87.6 928.63,-81.6 934.63,-81.6 934.63,-81.6 964.63,-81.6 964.63,-81.6 970.63,-81.6 976.63,-87.6 976.63,-93.6 976.63,-93.6 976.63,-105.6 976.63,-105.6 976.63,-111.6 970.63,-117.6 964.63,-117.6"/>
<text xml:space="preserve" text-anchor="middle" x="949.63" y="-96.6" font-family="Helvetica,sans-Serif" font-size="10.00">ERROR</text>
</g>
<!-- node20&#45;&gt;node22 -->
<g id="edge17" class="edge">
<title>node20&#45;&gt;node22</title>
<path fill="none" stroke="black" d="M949.63,-162.93C949.63,-153.12 949.63,-140.6 949.63,-129.35"/>
<polygon fill="black" stroke="black" points="953.13,-129.35 949.63,-119.35 946.13,-129.35 953.13,-129.35"/>
</g>
<!-- node24 -->
<g id="node25" class="node">
<title>node24</title>
<path fill="#ff6b6b" stroke="#444444" stroke-width="2" d="M1146.25,-117.6C1146.25,-117.6 1007,-117.6 1007,-117.6 1001,-117.6 995,-111.6 995,-105.6 995,-105.6 995,-93.6 995,-93.6 995,-87.6 1001,-81.6 1007,-81.6 1007,-81.6 1146.25,-81.6 1146.25,-81.6 1152.25,-81.6 1158.25,-87.6 1158.25,-93.6 1158.25,-93.6 1158.25,-105.6 1158.25,-105.6 1158.25,-111.6 1152.25,-117.6 1146.25,-117.6"/>
<text xml:space="preserve" text-anchor="middle" x="1076.63" y="-102.6" font-family="Helvetica,sans-Serif" font-size="10.00">qualified_identifier</text>
<text xml:space="preserve" text-anchor="middle" x="1076.63" y="-90.6" font-family="Helvetica,sans-Serif" font-size="10.00">[GCC expected &#39;}&#39; at end of input]</text>
</g>
<!-- node20&#45;&gt;node24 -->
<g id="edge20" class="edge">
<title>node20&#45;&gt;node24</title>
<path fill="none" stroke="black" d="M977.5,-162.73C995.61,-151.38 1019.44,-136.44 1039.2,-124.06"/>
<polygon fill="black" stroke="black" points="1040.92,-127.11 1047.54,-118.83 1037.21,-121.18 1040.92,-127.11"/>
<text xml:space="preserve" text-anchor="middle" x="1028.28" y="-138" font-family="Times New Roman,serif" font-size="8.00" fill="#888888">right</text>
</g>
<!-- node23 -->
<g id="node24" class="node">
<title>node23</title>
<path fill="#f0f0f0" stroke="#444444" stroke-width="2" d="M977.31,-36C977.31,-36 921.94,-36 921.94,-36 915.94,-36 909.94,-30 909.94,-24 909.94,-24 909.94,-12 909.94,-12 909.94,-6 915.94,0 921.94,0 921.94,0 977.31,0 977.31,0 983.31,0 989.31,-6 989.31,-12 989.31,-12 989.31,-24 989.31,-24 989.31,-30 983.31,-36 977.31,-36"/>
<text xml:space="preserve" text-anchor="middle" x="949.63" y="-21" font-family="Helvetica,sans-Serif" font-size="10.00">number_literal</text>
<text xml:space="preserve" text-anchor="middle" x="949.63" y="-9" font-family="Helvetica,sans-Serif" font-size="10.00">&#39;5&#39;</text>
</g>
<!-- node22&#45;&gt;node23 -->
<g id="edge16" class="edge">
<title>node22&#45;&gt;node23</title>
<path fill="none" stroke="black" d="M949.63,-81.33C949.63,-71.52 949.63,-59 949.63,-47.75"/>
<polygon fill="black" stroke="black" points="953.13,-47.75 949.63,-37.75 946.13,-47.75 953.13,-47.75"/>
</g>
<!-- node25 -->
<g id="node26" class="node">
<title>node25</title>
<path fill="#f0f0f0" stroke="#444444" stroke-width="2" d="M1113.15,-36C1113.15,-36 1026.1,-36 1026.1,-36 1020.1,-36 1014.1,-30 1014.1,-24 1014.1,-24 1014.1,-12 1014.1,-12 1014.1,-6 1020.1,0 1026.1,0 1026.1,0 1113.15,0 1113.15,0 1119.15,0 1125.15,-6 1125.15,-12 1125.15,-12 1125.15,-24 1125.15,-24 1125.15,-30 1119.15,-36 1113.15,-36"/>
<text xml:space="preserve" text-anchor="middle" x="1069.63" y="-21" font-family="Helvetica,sans-Serif" font-size="10.00">namespace_identifier</text>
<text xml:space="preserve" text-anchor="middle" x="1069.63" y="-9" font-family="Helvetica,sans-Serif" font-size="10.00">&#39;std&#39;</text>
</g>
<!-- node24&#45;&gt;node25 -->
<g id="edge18" class="edge">
<title>node24&#45;&gt;node25</title>
<path fill="none" stroke="black" d="M1075.11,-81.33C1074.24,-71.42 1073.12,-58.73 1072.12,-47.39"/>
<polygon fill="black" stroke="black" points="1075.64,-47.4 1071.27,-37.75 1068.66,-48.01 1075.64,-47.4"/>
<text xml:space="preserve" text-anchor="middle" x="1082.65" y="-56.4" font-family="Times New Roman,serif" font-size="8.00" fill="#888888">scope</text>
</g>
<!-- node26 -->
<g id="node27" class="node">
<title>node26</title>
<path fill="#9bdaef" stroke="#444444" stroke-width="2" d="M1185.63,-36C1185.63,-36 1155.63,-36 1155.63,-36 1149.63,-36 1143.63,-30 1143.63,-24 1143.63,-24 1143.63,-12 1143.63,-12 1143.63,-6 1149.63,0 1155.63,0 1155.63,0 1185.63,0 1185.63,0 1191.63,0 1197.63,-6 1197.63,-12 1197.63,-12 1197.63,-24 1197.63,-24 1197.63,-30 1191.63,-36 1185.63,-36"/>
<text xml:space="preserve" text-anchor="middle" x="1170.63" y="-21" font-family="Helvetica,sans-Serif" font-size="10.00">identifier</text>
<text xml:space="preserve" text-anchor="middle" x="1170.63" y="-9" font-family="Helvetica,sans-Serif" font-size="10.00">&#39;cout&#39;</text>
</g>
<!-- node24&#45;&gt;node26 -->
<g id="edge19" class="edge">
<title>node24&#45;&gt;node26</title>
<path fill="none" stroke="black" d="M1097.02,-81.33C1110.08,-70.27 1127.22,-55.76 1141.68,-43.51"/>
<polygon fill="black" stroke="black" points="1143.74,-46.35 1149.11,-37.22 1139.22,-41.01 1143.74,-46.35"/>
<text xml:space="preserve" text-anchor="middle" x="1137.92" y="-56.4" font-family="Times New Roman,serif" font-size="8.00" fill="#888888">name</text>
</g>
</g>
</svg>
